<?xml version="1.0" encoding="UTF-8"?>
<!DOCTYPE svg PUBLIC "-//W3C//DTD SVG 1.1//EN" "http://www.w3.org/Graphics/SVG/1.1/DTD/svg11.dtd">
<!-- Creator: CorelDRAW 2020 (64-Bit) -->
<svg xmlns="http://www.w3.org/2000/svg" xml:space="preserve" width="119.687mm" height="35.8403mm" version="1.1" style="shape-rendering:geometricPrecision; text-rendering:geometricPrecision; image-rendering:optimizeQuality; fill-rule:evenodd; clip-rule:evenodd"
viewBox="0 0 12106.36 3625.24"
 xmlns:xlink="http://www.w3.org/1999/xlink"
 xmlns:xodm="http://www.corel.com/coreldraw/odm/2003">
 <defs>
  <style type="text/css">
   <![CDATA[
    .fil2 {fill:#025E25}
    .fil1 {fill:#038439}
    .fil4 {fill:#0765A3}
    .fil3 {fill:#227FBD}
    .fil0 {fill:#3DA935}
    .fil6 {fill:#E74E0E}
    .fil5 {fill:#F19102}
    .fil7 {fill:#F6BB3C}
    .fil8 {fill:#1C3445;fill-rule:nonzero}
   ]]>
  </style>
 </defs>
 <g id="Слой_x0020_1">
  <metadata id="CorelCorpID_0Corel-Layer"/>
  <g id="_2340961413776">
   <path class="fil0" d="M506.52 2305.65l0 -1057.15 -506.52 -70.82 0 1024.81 0.15 861.55 2578.64 561.19 0 0 0 -496.78 -506.29 -103.1 0 -400.84 0 -178.1 0 -532.25 0 -446.68 -505.03 -70.63 0 526.63 0 598.2 0 341.28 0 59.56 -57.93 -11.78 -582.25 -118.58 -420.77 -85.78 0 -400.74zm-506.52 758.17l506.4 -357.35 0.12 -0.08 -506.52 357.43z"/>
   <polygon class="fil1" points="927.38,2395.81 506.52,2706.39 927.38,2792.08 1567.47,2922.53 1567.57,2521.61 932.23,2392.25 "/>
   <polygon class="fil2" points="506.52,2706.39 927.38,2395.81 927.38,2391.25 927.38,1307.26 506.61,1248.42 506.61,2305.57 "/>
   <polygon class="fil3" points="2578.79,3128.47 2578.79,2727.63 2578.79,2028.86 2578.79,1538.28 2555.2,1534.97 2072.5,1467.49 2072.5,1914.17 2072.5,2446.42 2072.5,2624.53 2072.5,3025.36 "/>
   <polygon class="fil4" points="3083.21,1634.64 3440.88,1339.66 3440.88,2611.15 3739.59,2252.23 3739.59,1093.3 3739.59,626.43 3440.88,861.08 3083.21,1142.03 2925.44,1265.97 2578.79,1538.28 2578.79,1560.1 2578.79,2050.67 2578.79,2749.46 2578.79,3150.28 2578.79,3625.24 2925.44,3208.7 2925.44,2820.05 2925.44,1764.78 "/>
   <polygon class="fil5" points="506.52,775.68 -0,704.85 -0,1177.69 506.52,1248.5 927.29,1307.34 1567.47,1396.86 2072.5,1467.49 2578.79,1538.28 2578.79,1065.44 2072.5,994.66 1567.47,924.04 927.29,834.52 "/>
   <polygon class="fil3" points="2925.44,804.1 2925.44,1265.97 3083.21,1142.03 3445.44,857.51 3440.88,856.97 3083.21,820.95 "/>
   <polygon class="fil6" points="2578.79,1065.44 2578.79,1538.28 2925.44,1265.97 2925.44,804.1 "/>
   <polygon class="fil6" points="3440.88,424.35 3445.44,857.51 3445.44,857.51 3739.59,626.43 3739.59,210.93 3737.53,210.73 "/>
   <path class="fil7" d="M2629.62 635.01l0 -151.04 -414.04 -175.99 363.21 42.63 346.65 29.66 157.77 13.48 357.67 30.6 297.68 -213.53 -2173.43 -210.83 -381.9 175.62 384.24 136.62 168.45 59.89 -168.45 5.12 -640.18 19.45 -240.76 7.3c-228.68,105.15 -454.4,202.33 -686.54,300.85 2578.79,360.59 0,0 2578.79,360.59l0 0 346.65 -261.34 -295.82 -40.76 0 -128.33z"/>
   <polygon class="fil5" points="1567.47,646.21 2072.5,703.82 2461.67,745.38 2461.67,584.2 "/>
   <polygon class="fil6" points="2461.67,584.2 2461.67,745.38 2578.79,757.9 2629.62,763.34 2629.62,483.97 2461.67,584.2 "/>
   <polygon class="fil5" points="3445.44,857.51 3440.88,424.35 3083.21,393.76 2925.44,380.27 2215.58,307.98 2629.62,483.97 2629.62,763.34 2925.44,804.1 "/>
   <polygon class="fil3" points="3083.21,2547.21 3440.88,2611.15 3440.88,1339.66 3083.21,1634.64 "/>
   <polygon class="fil5" points="1567.47,312.24 1183.23,175.62 1183.23,388.91 1567.47,377.25 1735.92,372.13 "/>
  </g>
  <path class="fil8" d="M5329.34 990.15l-6.53 225.63 -90.43 0 -3.72 -136.12 -409.3 0 0 -675 131.47 0 0 564.99 199.52 0 0 -564.99 132.37 0 0 564.06 46.62 21.43zm514.62 -195.8c0,18.65 -0.62,32.96 -1.86,42.91l-323.53 43.81c5.61,36.06 20.7,63.39 45.23,82.03 24.54,18.65 55.79,27.98 93.69,27.98 52.85,0 99.45,-10.56 139.87,-31.69l36.34 95.08c-47.25,24.26 -109.08,36.36 -185.51,36.36 -80.83,0 -143.28,-23.91 -187.4,-71.78 -44.14,-47.86 -66.2,-111.57 -66.2,-191.12 0,-78.32 20.82,-141.57 62.46,-189.75 41.63,-48.15 98.51,-72.25 170.61,-72.25 68.37,0 121.53,20.66 159.44,61.99 37.89,41.36 56.86,96.81 56.86,166.42zm-123.06 -22.36c0,-37.3 -8.55,-65.59 -25.65,-84.85 -17.06,-19.27 -40.55,-28.88 -70.38,-28.88 -34.18,0 -61.68,12.27 -82.51,36.81 -20.82,24.57 -31.54,59.82 -32.16,105.82l210.7 -28.9zm633.98 307.67l-126.8 0 0 -211.64 -161.28 0 0 211.64 -126.8 0 0 -502.53 126.8 0 0 206.05 161.28 0 0 -206.05 126.8 0 0 502.53zm458.69 -402.78l-124.01 0 0 402.78 -127.73 0 0 -402.78 -123.98 0 0 -99.75 375.72 0 0 99.75zm517.43 149.18c0,78.94 -20.38,141.88 -61.09,188.79 -40.7,46.93 -98.67,70.42 -173.86,70.42 -27.36,0 -51.59,-3.75 -72.72,-11.22l0 206.05 -126.8 0 0 -677.79c45.98,-24.26 107.23,-36.37 183.66,-36.37 80.8,0 142.81,22.86 186,68.53 43.18,45.7 64.81,109.55 64.81,191.59zm-127.73 0c0,-50.97 -10.41,-90.59 -31.22,-118.87 -20.85,-28.26 -50.84,-42.41 -89.99,-42.41 -25.47,0 -45.05,3.43 -58.72,10.26l0 303.94c13.67,6.2 33.55,9.33 59.67,9.33 38.52,0 68.2,-14.77 89.04,-44.29 20.82,-29.53 31.22,-68.84 31.22,-117.94zm-1427.38 1097.6c0,18.65 -0.62,32.96 -1.86,42.91l-323.52 43.81c5.6,36.06 20.69,63.39 45.22,82.03 24.54,18.65 55.79,27.98 93.69,27.98 52.85,0 99.45,-10.57 139.87,-31.69l36.34 95.08c-47.24,24.25 -109.08,36.36 -185.51,36.36 -80.83,0 -143.28,-23.92 -187.4,-71.78 -44.14,-47.86 -66.2,-111.57 -66.2,-191.12 0,-78.32 20.82,-141.58 62.46,-189.75 41.63,-48.15 98.51,-72.25 170.61,-72.25 68.37,0 121.53,20.66 159.44,61.99 37.9,41.35 56.86,96.81 56.86,166.42zm-123.06 -22.36c0,-37.3 -8.55,-65.59 -25.64,-84.85 -17.07,-19.27 -40.56,-28.88 -70.39,-28.88 -34.18,0 -61.68,12.27 -82.51,36.81 -20.82,24.57 -31.54,59.82 -32.16,105.82l210.7 -28.9zm716.97 227.49l-7.46 216.3 -87.64 0 -4.68 -136.13 -345.86 0 -4.67 136.13 -87.65 0 -8.4 -216.3c42.91,-26.12 74.6,-64.34 95.11,-114.68 20.5,-50.34 36.06,-110.64 46.62,-180.87l18.65 -126.8 299.27 0 42.88 403.7 43.83 18.65zm-159.45 -14.93l-29.83 -312.31 -96.94 0 -8.4 55.95c-19.27,126.77 -52.2,212.24 -98.82,256.36l233.99 0zm640.51 69.92c-19.27,9.94 -46.29,18.49 -81.1,25.64 -34.8,7.16 -70.54,10.72 -107.22,10.72 -74.58,0 -130.99,-13.97 -169.21,-41.95 -38.23,-27.98 -57.34,-68.06 -57.34,-120.27 0,-26.73 5.6,-50.03 16.79,-69.92 11.18,-19.89 25.49,-35.75 42.88,-47.55 17.41,-11.8 39.47,-21.75 66.2,-29.83 26.73,-8.09 52.97,-13.83 78.78,-17.26 25.8,-3.41 55.79,-6.05 89.97,-7.93l0 -26.09c0,-47.86 -31.39,-71.79 -94.15,-71.79 -46.63,0 -93.56,9.94 -140.8,29.84l-31.7 -85.79c57.19,-24.26 119.34,-36.37 186.47,-36.37 66.52,0 116.54,14.16 150.1,42.41 33.58,28.29 50.34,73.83 50.34,136.59l0 309.53zm-120.26 -64.32l0 -152.89c-27.98,1.23 -50.5,2.94 -67.6,5.12 -17.07,2.16 -34.95,6.22 -53.6,12.11 -18.65,5.92 -32.32,14.78 -41.02,26.58 -8.71,11.8 -13.07,26.73 -13.07,44.74 0,23.63 9.01,41.98 27.04,55.02 18.04,13.05 43.52,19.58 76.46,19.58 31.69,0 55.61,-3.41 71.79,-10.26zm531.43 -314.2l-169.68 0 0 403.7 -127.73 0 0 -502.52 297.41 0 0 98.82zm502.52 151.99c0,77.67 -20.05,140.93 -60.13,189.73 -40.09,48.78 -95.88,73.17 -167.35,73.17 -71.47,0 -127.27,-24.39 -167.35,-73.17 -40.1,-48.79 -60.13,-112.05 -60.13,-189.73 0,-77.08 20.04,-140 60.13,-188.8 40.09,-48.79 95.88,-73.2 167.35,-73.2 71.47,0 127.27,24.41 167.35,73.2 40.09,48.79 60.13,111.72 60.13,188.8zm-152.45 117.45c17.1,-27.95 25.65,-67.42 25.65,-118.38 0,-50.99 -8.55,-90.61 -25.65,-118.87 -17.07,-28.28 -42.1,-42.44 -75.03,-42.44 -32.93,0 -57.97,14.16 -75.06,42.44 -17.07,28.26 -25.62,67.88 -25.62,118.87 0,50.96 8.55,90.43 25.62,118.38 17.09,27.98 42.13,41.98 75.06,41.98 32.93,0 57.96,-14 75.03,-41.98zm546.83 -269.43l-169.68 0 0 403.7 -127.73 0 0 -502.52 297.41 0 0 98.82zm524.87 403.7l-111.86 0 0 -286.22 1.85 -67.13 -1.85 0c-9.33,21.16 -19.58,41.05 -30.77,59.67l-179.94 293.69 -121.19 0 0 -502.52 111.87 0 0 275.97 -1.86 68.99 1.86 0c9.32,-21.75 19.57,-41.63 30.76,-59.67l175.28 -285.29 125.84 0 0 502.52zm524.9 0l-126.8 0 0 -186.46c-34.17,16.16 -68.98,24.25 -104.4,24.25 -60.3,0 -105.98,-14.77 -137.06,-44.29 -31.07,-29.53 -46.63,-72.55 -46.63,-129.13l0 -166.89 127.73 0 0 152.92c0,57.18 29.53,85.75 88.58,85.75 26.12,0 50.03,-6.2 71.78,-18.62l0 -220.05 126.8 0 0 502.52zm545.41 -285.29c0,18.65 -0.63,32.96 -1.86,42.91l-323.53 43.81c5.6,36.06 20.7,63.39 45.23,82.03 24.54,18.65 55.79,27.98 93.69,27.98 52.85,0 99.44,-10.57 139.87,-31.69l36.34 95.08c-47.25,24.25 -109.08,36.36 -185.51,36.36 -80.83,0 -143.29,-23.92 -187.4,-71.78 -44.14,-47.86 -66.2,-111.57 -66.2,-191.12 0,-78.32 20.82,-141.58 62.46,-189.75 41.63,-48.15 98.51,-72.25 170.6,-72.25 68.38,0 121.53,20.66 159.45,61.99 37.89,41.35 56.86,96.81 56.86,166.42zm-123.06 -22.36c0,-37.3 -8.55,-65.59 -25.65,-84.85 -17.07,-19.27 -40.55,-28.88 -70.38,-28.88 -34.18,0 -61.69,12.27 -82.51,36.81 -20.82,24.57 -31.54,59.82 -32.16,105.82l210.7 -28.9zm559.38 284.36c-34.8,22.99 -79.25,34.48 -133.31,34.48 -63.42,0 -116.71,-22.68 -159.92,-68.06 -43.19,-45.36 -64.79,-110.31 -64.79,-194.84 0,-84.54 21.6,-149.33 64.79,-194.4 43.21,-45.07 96.5,-67.6 159.92,-67.6 54.68,0 99.14,11.5 133.31,34.51l-40.09 91.36c-19.27,-14.3 -44.12,-21.43 -74.6,-21.43 -32.93,0 -59.82,13.5 -80.65,40.55 -20.82,27.05 -31.22,65.71 -31.22,116.08 0,49.73 10.56,88.23 31.69,115.59 21.16,27.35 47.86,41.02 80.18,41.02 29.83,0 54.71,-7.44 74.6,-22.37l40.09 95.11zm530.5 23.29l-138.91 0 -70.89 -152.89c-24.84,-54.7 -61.53,-82.06 -110.01,-82.06l0 234.95 -124.91 0 0 -502.52 124.91 0 0 220.98 1.89 0 165 -220.98 145.45 0 -183.68 223.76c46.62,19.27 83.31,56.57 110.01,111.87l81.13 166.89zm488.52 -251.71c0,77.67 -20.04,140.93 -60.13,189.73 -40.09,48.78 -95.88,73.17 -167.35,73.17 -71.47,0 -127.27,-24.39 -167.35,-73.17 -40.09,-48.79 -60.13,-112.05 -60.13,-189.73 0,-77.08 20.05,-140 60.13,-188.8 40.09,-48.79 95.88,-73.2 167.35,-73.2 71.47,0 127.27,24.41 167.35,73.2 40.1,48.79 60.13,111.72 60.13,188.8zm-152.44 117.45c17.09,-27.95 25.64,-67.42 25.64,-118.38 0,-50.99 -8.55,-90.61 -25.64,-118.87 -17.07,-28.28 -42.11,-42.44 -75.04,-42.44 -32.93,0 -57.96,14.16 -75.06,42.44 -17.07,28.26 -25.62,67.88 -25.62,118.87 0,50.96 8.55,90.43 25.62,118.38 17.1,27.98 42.13,41.98 75.06,41.98 32.93,0 57.97,-14 75.04,-41.98zm546.83 -269.43l-169.68 0 0 403.7 -127.73 0 0 -502.52 297.41 0 0 98.82zm502.52 151.99c0,77.67 -20.05,140.93 -60.13,189.73 -40.09,48.78 -95.88,73.17 -167.35,73.17 -71.47,0 -127.27,-24.39 -167.35,-73.17 -40.09,-48.79 -60.13,-112.05 -60.13,-189.73 0,-77.08 20.05,-140 60.13,-188.8 40.09,-48.79 95.88,-73.2 167.35,-73.2 71.47,0 127.27,24.41 167.35,73.2 40.09,48.79 60.13,111.72 60.13,188.8zm-152.45 117.45c17.1,-27.95 25.65,-67.42 25.65,-118.38 0,-50.99 -8.55,-90.61 -25.65,-118.87 -17.07,-28.28 -42.1,-42.44 -75.03,-42.44 -32.93,0 -57.96,14.16 -75.06,42.44 -17.07,28.26 -25.62,67.88 -25.62,118.87 0,50.96 8.55,90.43 25.62,118.38 17.1,27.98 42.13,41.98 75.06,41.98 32.93,0 57.96,-14 75.03,-41.98zm-6026.96 1238.38c-19.27,9.95 -46.29,18.5 -81.11,25.65 -34.79,7.16 -70.54,10.72 -107.22,10.72 -74.57,0 -130.99,-13.98 -169.21,-41.95 -38.22,-27.98 -57.34,-68.06 -57.34,-120.27 0,-26.73 5.6,-50.03 16.79,-69.92 11.19,-19.89 25.49,-35.75 42.88,-47.55 17.41,-11.8 39.47,-21.75 66.2,-29.84 26.73,-8.08 52.97,-13.82 78.79,-17.25 25.8,-3.41 55.78,-6.05 89.96,-7.93l0 -26.1c0,-47.85 -31.39,-71.78 -94.15,-71.78 -46.62,0 -93.55,9.94 -140.8,29.83l-31.69 -85.78c57.18,-24.26 119.33,-36.37 186.46,-36.37 66.52,0 116.54,14.16 150.11,42.41 33.57,28.28 50.34,73.83 50.34,136.59l0 309.52zm-120.27 -64.31l0 -152.89c-27.98,1.23 -50.49,2.94 -67.6,5.11 -17.07,2.17 -34.95,6.23 -53.6,12.12 -18.65,5.92 -32.31,14.78 -41.02,26.58 -8.71,11.8 -13.07,26.73 -13.07,44.74 0,23.63 9.01,41.97 27.05,55.02 18.02,13.05 43.51,19.58 76.45,19.58 31.7,0 55.61,-3.41 71.79,-10.26zm573.38 66.2c-34.8,22.99 -79.25,34.48 -133.31,34.48 -63.42,0 -116.71,-22.68 -159.92,-68.06 -43.19,-45.36 -64.79,-110.32 -64.79,-194.84 0,-84.54 21.6,-149.33 64.79,-194.4 43.21,-45.07 96.5,-67.6 159.92,-67.6 54.68,0 99.14,11.49 133.31,34.51l-40.09 91.36c-19.27,-14.31 -44.12,-21.43 -74.6,-21.43 -32.93,0 -59.83,13.5 -80.65,40.55 -20.82,27.04 -31.22,65.71 -31.22,116.08 0,49.73 10.56,88.23 31.69,115.59 21.16,27.35 47.86,41.02 80.18,41.02 29.83,0 54.7,-7.44 74.6,-22.37l40.09 95.11zm430.75 -379.47l-124.01 0 0 402.77 -127.73 0 0 -402.77 -123.99 0 0 -99.75 375.73 0 0 99.75zm500.64 117.48c0,18.65 -0.63,32.96 -1.86,42.91l-323.53 43.81c5.6,36.06 20.7,63.38 45.23,82.03 24.54,18.65 55.79,27.98 93.69,27.98 52.85,0 99.44,-10.57 139.87,-31.7l36.34 95.08c-47.25,24.26 -109.08,36.37 -185.51,36.37 -80.83,0 -143.29,-23.92 -187.4,-71.79 -44.14,-47.86 -66.2,-111.56 -66.2,-191.11 0,-78.32 20.82,-141.58 62.46,-189.75 41.63,-48.15 98.51,-72.25 170.6,-72.25 68.38,0 121.53,20.66 159.45,61.99 37.89,41.35 56.86,96.81 56.86,166.42zm-123.06 -22.36c0,-37.3 -8.55,-65.59 -25.65,-84.85 -17.07,-19.27 -40.55,-28.88 -70.38,-28.88 -34.18,0 -61.69,12.27 -82.51,36.81 -20.82,24.56 -31.54,59.82 -32.16,105.82l210.7 -28.9zm653.56 54.05c0,78.94 -20.38,141.89 -61.09,188.8 -40.7,46.93 -98.67,70.41 -173.86,70.41 -27.36,0 -51.59,-3.74 -72.72,-11.21l0 206.05 -126.8 0 0 -677.79c45.98,-24.26 107.22,-36.37 183.66,-36.37 80.8,0 142.81,22.86 186,68.53 43.18,45.69 64.81,109.55 64.81,191.58zm-127.73 0c0,-50.96 -10.41,-90.58 -31.22,-118.86 -20.85,-28.26 -50.84,-42.42 -89.99,-42.42 -25.47,0 -45.05,3.44 -58.72,10.26l0 303.95c13.67,6.2 33.55,9.33 59.67,9.33 38.52,0 68.2,-14.78 89.04,-44.3 20.82,-29.52 31.22,-68.83 31.22,-117.94zm564.03 230.31c-34.8,22.99 -79.25,34.48 -133.32,34.48 -63.41,0 -116.7,-22.68 -159.92,-68.06 -43.18,-45.36 -64.78,-110.32 -64.78,-194.84 0,-84.54 21.6,-149.33 64.78,-194.4 43.22,-45.07 96.51,-67.6 159.92,-67.6 54.68,0 99.14,11.49 133.32,34.51l-40.1 91.36c-19.27,-14.31 -44.11,-21.43 -74.6,-21.43 -32.93,0 -59.82,13.5 -80.64,40.55 -20.82,27.04 -31.24,65.71 -31.24,116.08 0,49.73 10.57,88.23 31.7,115.59 21.15,27.35 47.86,41.02 80.17,41.02 29.84,0 54.71,-7.44 74.6,-22.37l40.1 95.11zm430.74 -379.47l-124.01 0 0 402.77 -127.73 0 0 -402.77 -123.98 0 0 -99.75 375.72 0 0 99.75zm499.71 267.57c0,97.59 -77.08,146.38 -231.23,146.38 -73.33,0 -135.17,-12.12 -185.51,-36.37l0 -452.15c50.34,-24.26 111.86,-36.37 184.58,-36.37 70.23,0 124.32,12.27 162.24,36.84 37.91,24.54 56.85,58.89 56.85,103.01 0,27.35 -9.79,51.76 -29.36,73.2 -19.55,21.43 -42.73,34.95 -69.46,40.55l0 0.93c30.48,7.46 56.72,21.43 78.79,41.95 22.08,20.51 33.11,47.86 33.11,82.03zm-135.2 -229.35c0,-47.24 -32.31,-70.85 -96.96,-70.85 -25.47,0 -46.6,3.41 -63.39,10.26l0 134.27 68.99 0c30.46,0 52.82,-5.3 67.13,-15.86 16.14,-11.8 24.23,-31.07 24.23,-57.82zm9.33 221.91c0,-27.35 -10.56,-47.55 -31.69,-60.6 -16.17,-9.94 -38.54,-14.93 -67.13,-14.93l-70.86 0 0 140.77c15.56,6.85 36.99,10.26 64.32,10.26 70.26,0 105.36,-25.16 105.36,-75.5zm617.19 117.45c-19.27,9.95 -46.29,18.5 -81.1,25.65 -34.8,7.16 -70.54,10.72 -107.22,10.72 -74.58,0 -130.99,-13.98 -169.21,-41.95 -38.23,-27.98 -57.34,-68.06 -57.34,-120.27 0,-26.73 5.6,-50.03 16.78,-69.92 11.19,-19.89 25.5,-35.75 42.89,-47.55 17.41,-11.8 39.46,-21.75 66.2,-29.84 26.73,-8.08 52.97,-13.82 78.78,-17.25 25.8,-3.41 55.79,-6.05 89.97,-7.93l0 -26.1c0,-47.85 -31.39,-71.78 -94.16,-71.78 -46.62,0 -93.55,9.94 -140.79,29.83l-31.7 -85.78c57.19,-24.26 119.34,-36.37 186.47,-36.37 66.52,0 116.54,14.16 150.1,42.41 33.58,28.28 50.34,73.83 50.34,136.59l0 309.52zm-120.26 -64.31l0 -152.89c-27.98,1.23 -50.5,2.94 -67.6,5.11 -17.07,2.17 -34.95,6.23 -53.6,12.12 -18.65,5.92 -32.32,14.78 -41.02,26.58 -8.71,11.8 -13.08,26.73 -13.08,44.74 0,23.63 9.02,41.97 27.05,55.02 18.04,13.05 43.52,19.58 76.46,19.58 31.69,0 55.61,-3.41 71.79,-10.26zm-4349.25 -1039.8l-126.8 0 0 -403.7 -163.14 0 0 403.7 -126.8 0 0 -502.52 416.75 0 0 502.52zm215.35 1129.3l-119.34 0 -34.48 -315.12 -5.6 -71.79 -1.86 0c-4.34,26.12 -9.94,50.03 -16.76,71.79l-100.72 315.12 -98.82 0 -100.69 -315.12 -17.71 -71.79 -1.86 0c-0.63,26.12 -2.17,50.03 -4.65,71.79l-34.51 315.12 -119.33 0 68.05 -502.52 151.97 0 92.31 289.02 14.91 66.2 1.86 0c3.74,-24.85 8.7,-46.93 14.93,-66.2l91.36 -289.02 152.92 0 68.03 502.52z"/>
 </g>
</svg>
